<svg width="342" height="67" viewBox="0 0 342 67" fill="none" xmlns="http://www.w3.org/2000/svg">
<rect x="3" y="3" width="336" height="61" rx="30.5" fill="black" stroke="white" stroke-width="6"/>
<path d="M145.425 32.135C145.215 31.435 144.935 30.77 144.55 30.14L144.375 29.825C144.34 29.755 144.27 29.685 144.235 29.615L144.13 29.44C144.095 29.37 144.025 29.3 143.955 29.195C143.885 29.09 143.815 28.985 143.745 28.915L143.675 28.845C143.605 28.74 143.535 28.67 143.465 28.6L143.43 28.53L143.325 28.635L143.395 28.53C143.29 28.39 143.185 28.285 143.08 28.145L143.01 28.075C142.94 28.005 142.87 27.935 142.765 27.865V27.83C142.66 27.76 142.555 27.655 142.45 27.55L142.38 27.515C142.24 27.375 142.1 27.27 141.96 27.165C141.925 27.165 141.89 27.13 141.855 27.095C141.68 26.955 141.54 26.85 141.365 26.745H141.33C141.155 26.64 140.91 26.465 140.735 26.395C140.7 26.36 140.63 26.325 140.595 26.29L140.525 26.43L140.595 26.29H140.56C140.49 26.255 140.42 26.22 140.315 26.15H140.28C140.105 26.08 139.93 25.975 139.79 25.905H139.72C139.615 25.87 139.545 25.835 139.405 25.8C139.37 25.765 139.335 25.765 139.3 25.73C139.195 25.695 139.055 25.66 138.95 25.625H138.915C138.775 25.59 138.635 25.52 138.495 25.485L138.39 25.45C138.11 25.38 137.83 25.345 137.55 25.31L137.41 25.275C137.13 25.24 136.815 25.205 136.535 25.17H136.43C136.255 25.17 136.115 25.17 135.975 25.17C135.835 25.17 135.695 25.17 135.52 25.17C135.485 25.17 135.45 25.17 135.415 25.205H135.38C135.275 25.205 135.17 25.205 135.065 25.205H135.03C134.995 25.205 134.96 25.24 134.925 25.24C134.75 25.24 134.61 25.275 134.47 25.275H134.435C134.33 25.31 134.12 25.345 133.98 25.38H133.91C133.805 25.415 133.7 25.415 133.595 25.45H133.56C133.525 25.485 133.49 25.485 133.455 25.485C133.315 25.52 133.175 25.555 133.035 25.59C132.895 25.66 132.755 25.695 132.615 25.73C132.615 25.765 132.58 25.765 132.545 25.765L132.51 25.8C132.405 25.835 132.3 25.87 132.23 25.905H132.195C132.16 25.94 132.125 25.94 132.09 25.94C131.95 26.01 131.845 26.08 131.705 26.115C131.565 26.185 131.46 26.255 131.32 26.325C131.285 26.325 131.25 26.36 131.215 26.36V26.395C131.11 26.43 131.04 26.5 130.935 26.535L130.83 26.605C130.69 26.675 130.585 26.745 130.48 26.815C129.29 27.62 128.275 28.67 127.54 29.86C127.47 29.965 127.4 30.105 127.33 30.21L127.26 30.385C127.225 30.385 127.225 30.42 127.19 30.455C127.19 30.49 127.155 30.525 127.155 30.56L127.12 30.63C127.12 30.665 127.085 30.7 127.085 30.7C127.015 30.84 126.945 30.98 126.91 31.12C126.805 31.33 126.7 31.575 126.63 31.855C126.35 32.66 126.175 33.535 126.14 34.375C126.14 34.55 126.14 34.725 126.14 34.9C126.14 35.04 126.14 35.215 126.14 35.39C126.175 35.88 126.21 36.37 126.315 36.825C126.35 37 126.385 37.175 126.42 37.315C126.49 37.49 126.525 37.7 126.63 37.91C126.77 38.33 126.91 38.75 127.12 39.135C127.12 39.17 127.155 39.17 127.155 39.205L127.19 39.275C127.225 39.38 127.295 39.485 127.33 39.555L127.365 39.625C127.435 39.73 127.47 39.835 127.54 39.905C128.275 41.13 129.29 42.145 130.48 42.95C130.585 43.02 130.69 43.09 130.83 43.16L130.935 43.23C131.04 43.3 131.11 43.335 131.215 43.37V43.405C131.25 43.405 131.285 43.44 131.32 43.44C131.46 43.51 131.565 43.58 131.705 43.65C131.845 43.685 131.95 43.755 132.09 43.825C132.125 43.825 132.16 43.825 132.195 43.86H132.23C132.3 43.895 132.405 43.93 132.51 43.965L132.545 44C132.58 44 132.615 44 132.615 44.035C132.755 44.07 132.895 44.105 133.035 44.175C133.175 44.21 133.315 44.245 133.455 44.28C133.49 44.28 133.525 44.28 133.56 44.315H133.595C133.7 44.35 133.805 44.35 133.91 44.385L134.05 44.42C134.155 44.42 134.26 44.455 134.4 44.49H134.47C134.61 44.525 134.75 44.525 134.925 44.525C134.96 44.56 134.995 44.56 135.03 44.56H135.065C135.17 44.56 135.275 44.56 135.38 44.595H135.415C135.45 44.595 135.485 44.595 135.52 44.595C135.695 44.595 135.835 44.595 135.975 44.595C136.115 44.595 136.255 44.595 136.43 44.595H136.535C136.815 44.56 137.13 44.525 137.41 44.49H137.515C137.83 44.42 138.11 44.385 138.39 44.315L138.495 44.28C138.635 44.245 138.775 44.21 138.915 44.14H138.95C139.055 44.105 139.195 44.07 139.3 44.035L139.44 43.965C139.545 43.93 139.615 43.895 139.755 43.86H139.79C139.93 43.79 140.105 43.72 140.28 43.615H140.315C140.42 43.545 140.49 43.51 140.56 43.475H140.595C140.63 43.44 140.7 43.405 140.735 43.405L140.77 43.37C140.98 43.265 141.155 43.16 141.33 43.02L141.4 42.985C141.54 42.88 141.715 42.775 141.855 42.67L141.96 42.6C142.1 42.495 142.24 42.39 142.38 42.285L142.275 42.145L142.38 42.25L142.485 42.18C142.59 42.11 142.66 42.005 142.765 41.935V41.9C142.87 41.83 142.94 41.76 143.01 41.69L143.08 41.62C143.185 41.48 143.29 41.375 143.43 41.235L143.465 41.165C143.535 41.095 143.605 41.025 143.675 40.92L143.745 40.85C143.78 40.815 143.815 40.78 143.85 40.745L143.92 40.64C144.025 40.5 144.13 40.36 144.235 40.185C144.34 40.045 144.41 39.905 144.48 39.765L144.55 39.625C144.655 39.485 144.795 39.205 144.9 38.96C144.97 38.785 144.865 38.575 144.69 38.54L139.72 37.665C139.58 37.63 139.475 37.7 139.405 37.77C138.53 38.925 137.27 39.52 135.94 39.52C134.365 39.52 132.93 38.645 132.125 37.315C132.02 37.105 132.16 36.86 132.37 36.86H145.355C145.53 36.86 145.635 36.755 145.67 36.615C145.775 36.055 145.81 35.425 145.81 34.9C145.81 33.955 145.705 33.045 145.425 32.135ZM139.72 32.765H132.65C132.475 32.765 132.335 32.59 132.37 32.415C132.615 31.05 134.365 30 136.185 30C138.215 30 139.79 31.05 140.035 32.415C140.035 32.59 139.895 32.765 139.72 32.765ZM161.5 27.095C161.36 26.99 161.22 26.85 161.08 26.745C161.045 26.71 156.985 23.49 152.785 26.395C152.68 26.465 152.575 26.395 152.575 26.255V25.765C152.575 25.59 152.435 25.45 152.26 25.45H147.08C146.905 25.45 146.8 25.59 146.8 25.765V43.72C146.8 43.895 146.905 44 147.08 44H152.61C152.785 44 152.925 43.895 152.925 43.72V33.57C152.925 32.87 152.925 31.995 153.205 31.365C153.485 30.77 154.29 30.385 155.375 30.385C155.935 30.385 156.39 30.525 156.74 30.805C156.95 30.98 157.125 31.19 157.265 31.47C157.545 32.1 157.58 32.87 157.58 33.57V43.72C157.58 43.895 157.72 44 157.895 44H163.425C163.565 44 163.705 43.895 163.705 43.72V33.29C163.705 30.56 163.39 29.02 161.5 27.095ZM175.27 39.205H174.255C173.695 39.205 173.31 39.065 173.03 38.785C172.575 38.33 172.61 37.56 172.61 37V36.86C172.61 36.825 172.61 32.275 172.645 30.735C172.645 30.56 172.75 30.42 172.925 30.42H174.85C175.025 30.42 175.13 30.28 175.13 30.14V25.73C175.13 25.59 175.025 25.45 174.85 25.45H172.925C172.75 25.45 172.645 25.31 172.645 25.135V20.06C172.645 19.885 172.505 19.78 172.33 19.78H167.15C166.975 19.78 166.835 19.885 166.835 20.06V25.135C166.835 25.31 166.73 25.45 166.555 25.45H164.63C164.455 25.45 164.35 25.59 164.35 25.73V30.14C164.35 30.28 164.455 30.42 164.63 30.42H166.555C166.73 30.42 166.835 30.56 166.835 30.735V39.625C166.835 42.53 168.515 44.14 171.665 44.315C171.7 44.315 171.735 44.315 171.77 44.315C172.295 44.315 173.975 44.21 174.605 44.175C174.745 44.175 174.885 44.07 174.885 43.93L175.55 39.52C175.585 39.345 175.445 39.205 175.27 39.205ZM194.951 32.135C194.741 31.435 194.461 30.77 194.076 30.14L193.901 29.825C193.866 29.755 193.796 29.685 193.761 29.615L193.656 29.44C193.621 29.37 193.551 29.3 193.481 29.195C193.411 29.09 193.341 28.985 193.271 28.915L193.201 28.845C193.131 28.74 193.061 28.67 192.991 28.6L192.956 28.53L192.851 28.635L192.921 28.53C192.816 28.39 192.711 28.285 192.606 28.145L192.536 28.075C192.466 28.005 192.396 27.935 192.291 27.865V27.83C192.186 27.76 192.081 27.655 191.976 27.55L191.906 27.515C191.766 27.375 191.626 27.27 191.486 27.165C191.451 27.165 191.416 27.13 191.381 27.095C191.206 26.955 191.066 26.85 190.891 26.745H190.856C190.681 26.64 190.436 26.465 190.261 26.395C190.226 26.36 190.156 26.325 190.121 26.29L190.051 26.43L190.121 26.29H190.086C190.016 26.255 189.946 26.22 189.841 26.15H189.806C189.631 26.08 189.456 25.975 189.316 25.905H189.246C189.141 25.87 189.071 25.835 188.931 25.8C188.896 25.765 188.861 25.765 188.826 25.73C188.721 25.695 188.581 25.66 188.476 25.625H188.441C188.301 25.59 188.161 25.52 188.021 25.485L187.916 25.45C187.636 25.38 187.356 25.345 187.076 25.31L186.936 25.275C186.656 25.24 186.341 25.205 186.061 25.17H185.956C185.781 25.17 185.641 25.17 185.501 25.17C185.361 25.17 185.221 25.17 185.046 25.17C185.011 25.17 184.976 25.17 184.941 25.205H184.906C184.801 25.205 184.696 25.205 184.591 25.205H184.556C184.521 25.205 184.486 25.24 184.451 25.24C184.276 25.24 184.136 25.275 183.996 25.275H183.961C183.856 25.31 183.646 25.345 183.506 25.38H183.436C183.331 25.415 183.226 25.415 183.121 25.45H183.086C183.051 25.485 183.016 25.485 182.981 25.485C182.841 25.52 182.701 25.555 182.561 25.59C182.421 25.66 182.281 25.695 182.141 25.73C182.141 25.765 182.106 25.765 182.071 25.765L182.036 25.8C181.931 25.835 181.826 25.87 181.756 25.905H181.721C181.686 25.94 181.651 25.94 181.616 25.94C181.476 26.01 181.371 26.08 181.231 26.115C181.091 26.185 180.986 26.255 180.846 26.325C180.811 26.325 180.776 26.36 180.741 26.36V26.395C180.636 26.43 180.566 26.5 180.461 26.535L180.356 26.605C180.216 26.675 180.111 26.745 180.006 26.815C178.816 27.62 177.801 28.67 177.066 29.86C176.996 29.965 176.926 30.105 176.856 30.21L176.786 30.385C176.751 30.385 176.751 30.42 176.716 30.455C176.716 30.49 176.681 30.525 176.681 30.56L176.646 30.63C176.646 30.665 176.611 30.7 176.611 30.7C176.541 30.84 176.471 30.98 176.436 31.12C176.331 31.33 176.226 31.575 176.156 31.855C175.876 32.66 175.701 33.535 175.666 34.375C175.666 34.55 175.666 34.725 175.666 34.9C175.666 35.04 175.666 35.215 175.666 35.39C175.701 35.88 175.736 36.37 175.841 36.825C175.876 37 175.911 37.175 175.946 37.315C176.016 37.49 176.051 37.7 176.156 37.91C176.296 38.33 176.436 38.75 176.646 39.135C176.646 39.17 176.681 39.17 176.681 39.205L176.716 39.275C176.751 39.38 176.821 39.485 176.856 39.555L176.891 39.625C176.961 39.73 176.996 39.835 177.066 39.905C177.801 41.13 178.816 42.145 180.006 42.95C180.111 43.02 180.216 43.09 180.356 43.16L180.461 43.23C180.566 43.3 180.636 43.335 180.741 43.37V43.405C180.776 43.405 180.811 43.44 180.846 43.44C180.986 43.51 181.091 43.58 181.231 43.65C181.371 43.685 181.476 43.755 181.616 43.825C181.651 43.825 181.686 43.825 181.721 43.86H181.756C181.826 43.895 181.931 43.93 182.036 43.965L182.071 44C182.106 44 182.141 44 182.141 44.035C182.281 44.07 182.421 44.105 182.561 44.175C182.701 44.21 182.841 44.245 182.981 44.28C183.016 44.28 183.051 44.28 183.086 44.315H183.121C183.226 44.35 183.331 44.35 183.436 44.385L183.576 44.42C183.681 44.42 183.786 44.455 183.926 44.49H183.996C184.136 44.525 184.276 44.525 184.451 44.525C184.486 44.56 184.521 44.56 184.556 44.56H184.591C184.696 44.56 184.801 44.56 184.906 44.595H184.941C184.976 44.595 185.011 44.595 185.046 44.595C185.221 44.595 185.361 44.595 185.501 44.595C185.641 44.595 185.781 44.595 185.956 44.595H186.061C186.341 44.56 186.656 44.525 186.936 44.49H187.041C187.356 44.42 187.636 44.385 187.916 44.315L188.021 44.28C188.161 44.245 188.301 44.21 188.441 44.14H188.476C188.581 44.105 188.721 44.07 188.826 44.035L188.966 43.965C189.071 43.93 189.141 43.895 189.281 43.86H189.316C189.456 43.79 189.631 43.72 189.806 43.615H189.841C189.946 43.545 190.016 43.51 190.086 43.475H190.121C190.156 43.44 190.226 43.405 190.261 43.405L190.296 43.37C190.506 43.265 190.681 43.16 190.856 43.02L190.926 42.985C191.066 42.88 191.241 42.775 191.381 42.67L191.486 42.6C191.626 42.495 191.766 42.39 191.906 42.285L191.801 42.145L191.906 42.25L192.011 42.18C192.116 42.11 192.186 42.005 192.291 41.935V41.9C192.396 41.83 192.466 41.76 192.536 41.69L192.606 41.62C192.711 41.48 192.816 41.375 192.956 41.235L192.991 41.165C193.061 41.095 193.131 41.025 193.201 40.92L193.271 40.85C193.306 40.815 193.341 40.78 193.376 40.745L193.446 40.64C193.551 40.5 193.656 40.36 193.761 40.185C193.866 40.045 193.936 39.905 194.006 39.765L194.076 39.625C194.181 39.485 194.321 39.205 194.426 38.96C194.496 38.785 194.391 38.575 194.216 38.54L189.246 37.665C189.106 37.63 189.001 37.7 188.931 37.77C188.056 38.925 186.796 39.52 185.466 39.52C183.891 39.52 182.456 38.645 181.651 37.315C181.546 37.105 181.686 36.86 181.896 36.86H194.881C195.056 36.86 195.161 36.755 195.196 36.615C195.301 36.055 195.336 35.425 195.336 34.9C195.336 33.955 195.231 33.045 194.951 32.135ZM189.246 32.765H182.176C182.001 32.765 181.861 32.59 181.896 32.415C182.141 31.05 183.891 30 185.711 30C187.741 30 189.316 31.05 189.561 32.415C189.561 32.59 189.421 32.765 189.246 32.765ZM206.231 25.45C205.006 25.485 203.536 25.625 202.311 26.395C202.206 26.465 202.101 26.395 202.101 26.29V25.765C202.101 25.59 201.961 25.45 201.786 25.45H196.606C196.431 25.45 196.326 25.59 196.326 25.765V43.72C196.326 43.895 196.431 44 196.606 44H202.136C202.311 44 202.451 43.895 202.451 43.72V33.29C202.451 32.555 202.451 31.995 202.731 31.365C202.836 31.12 203.221 30.595 203.886 30.42C204.481 30.28 205.496 30.35 206.021 30.385C206.196 30.42 206.336 30.28 206.336 30.105L206.511 25.765C206.511 25.59 206.371 25.45 206.231 25.45ZM208.911 42.11C208.911 41.2467 209.121 40.64 209.541 40.29C209.961 39.94 210.462 39.765 211.046 39.765C211.652 39.765 212.166 39.94 212.586 40.29C213.029 40.64 213.251 41.2467 213.251 42.11C213.251 42.95 213.029 43.5567 212.586 43.93C212.166 44.3033 211.652 44.49 211.046 44.49C210.462 44.49 209.961 44.3033 209.541 43.93C209.121 43.5567 208.911 42.95 208.911 42.11Z" fill="white"/>
</svg>
